<?xml version="1.0" encoding="UTF-8" standalone="no"?>
<!-- Created with Inkscape (http://www.inkscape.org/) -->

<svg
   xmlns:dc="http://purl.org/dc/elements/1.1/"
   xmlns:cc="http://creativecommons.org/ns#"
   xmlns:rdf="http://www.w3.org/1999/02/22-rdf-syntax-ns#"
   xmlns:svg="http://www.w3.org/2000/svg"
   xmlns="http://www.w3.org/2000/svg"
   xmlns:xlink="http://www.w3.org/1999/xlink"
   xmlns:sodipodi="http://sodipodi.sourceforge.net/DTD/sodipodi-0.dtd"
   xmlns:inkscape="http://www.inkscape.org/namespaces/inkscape"
   width="6.3499999mm"
   height="6.3499999mm"
   viewBox="0 0 6.3499999 6.3499999"
   version="1.1"
   id="svg8"
   inkscape:version="0.92.3 (2405546, 2018-03-11)"
   sodipodi:docname="dataclassesdb.svg">
  <defs
     id="defs2">
    <linearGradient
       inkscape:collect="always"
       id="linearGradient11301">
      <stop
         style="stop-color:#ffe052;stop-opacity:1"
         offset="0"
         id="stop11303" />
      <stop
         style="stop-color:#ffc331;stop-opacity:1"
         offset="1"
         id="stop11305" />
    </linearGradient>
    <linearGradient
       inkscape:collect="always"
       xlink:href="#linearGradient11301"
       id="linearGradient11307"
       x1="89.136749"
       y1="111.92053"
       x2="147.77737"
       y2="168.1012"
       gradientUnits="userSpaceOnUse"
       gradientTransform="matrix(0.13581906,0,0,0.13581906,0.88516164,-0.26895667)" />
    <linearGradient
       inkscape:collect="always"
       id="linearGradient9515">
      <stop
         style="stop-color:#387eb8;stop-opacity:1"
         offset="0"
         id="stop9517" />
      <stop
         style="stop-color:#366994;stop-opacity:1"
         offset="1"
         id="stop9519" />
    </linearGradient>
    <linearGradient
       inkscape:collect="always"
       xlink:href="#linearGradient9515"
       id="linearGradient9521"
       x1="55.549179"
       y1="77.070274"
       x2="110.14919"
       y2="131.85291"
       gradientUnits="userSpaceOnUse"
       gradientTransform="matrix(0.13581906,0,0,0.13581906,1.2042308,0.21967395)" />
  </defs>
  <sodipodi:namedview
     id="base"
     pagecolor="#ffffff"
     bordercolor="#666666"
     borderopacity="1.0"
     inkscape:pageopacity="0.0"
     inkscape:pageshadow="2"
     inkscape:zoom="15.839192"
     inkscape:cx="20.723125"
     inkscape:cy="10.661625"
     inkscape:document-units="mm"
     inkscape:current-layer="g4614"
     showgrid="false"
     inkscape:window-width="1315"
     inkscape:window-height="713"
     inkscape:window-x="0"
     inkscape:window-y="27"
     inkscape:window-maximized="1" />
  <metadata
     id="metadata5">
    <rdf:RDF>
      <cc:Work
         rdf:about="">
        <dc:format>image/svg+xml</dc:format>
        <dc:type
           rdf:resource="http://purl.org/dc/dcmitype/StillImage" />
        <dc:title></dc:title>
      </cc:Work>
    </rdf:RDF>
  </metadata>
  <g
     inkscape:label="Layer 1"
     inkscape:groupmode="layer"
     id="layer1"
     transform="translate(0,-290.65)">
    <g
       id="g4614"
       transform="matrix(0.39693805,0,0,0.39693805,-15.971014,270.14634)">
      <path
         style="color:#000000;display:inline;overflow:visible;visibility:visible;opacity:1;fill:url(#linearGradient11307);fill-opacity:1;fill-rule:nonzero;stroke:none;stroke-width:0.56692916;stroke-linecap:butt;stroke-linejoin:miter;stroke-miterlimit:4;stroke-dasharray:none;stroke-dashoffset:0;stroke-opacity:1;marker:none;marker-start:none;marker-mid:none;marker-end:none"
         d="M 18.875 12.951172 L 18.875 14.441406 C 18.875 14.441406 18.897977 15.032472 18.611328 15.634766 C 18.324679 16.237059 17.671464 16.859375 16.498047 16.859375 L 12.890625 16.859375 C 12.890625 16.859375 12.441629 16.856472 12.003906 17.064453 C 11.566185 17.272434 11.154297 17.634673 11.154297 18.533203 L 11.154297 21.84375 L 11.150391 21.867188 C 11.150391 21.867188 11.080308 22.22128 11.429688 22.634766 C 11.779066 23.048249 12.598918 23.53125 14.541016 23.53125 C 16.403663 23.53125 17.212951 23.123868 17.552734 22.787109 C 17.722618 22.61873 17.787944 22.463798 17.814453 22.353516 C 17.840887 22.243233 17.832031 22.205078 17.832031 22.205078 L 17.828125 22.183594 L 17.822266 20.736328 L 14.189453 20.736328 L 14.189453 19.654297 L 19.566406 19.654297 L 19.580078 19.658203 C 19.580078 19.658203 20.085148 19.715183 20.609375 19.361328 C 21.133602 19.007473 21.701172 18.233897 21.701172 16.373047 C 21.701172 14.50458 21.195117 13.678624 20.740234 13.296875 C 20.285352 12.915126 19.876953 12.951172 19.876953 12.951172 L 19.867188 12.951172 L 18.875 12.951172 z M 16.544922 21.074219 C 17.059133 21.074219 17.482422 21.497508 17.482422 22.011719 C 17.482423 22.525931 17.059133 22.945312 16.544922 22.945312 C 16.030711 22.945312 15.607422 22.52593 15.607422 22.011719 C 15.607422 21.497508 16.030711 21.074219 16.544922 21.074219 z "
         transform="matrix(0.66656077,0,0,0.66656077,40.235533,51.654559)"
         id="path4670" />
      <path
         style="color:#000000;display:inline;overflow:visible;visibility:visible;opacity:1;fill:url(#linearGradient9521);fill-opacity:1;fill-rule:nonzero;stroke:none;stroke-width:0.56692916;stroke-linecap:butt;stroke-linejoin:miter;stroke-miterlimit:4;stroke-dasharray:none;stroke-dashoffset:0;stroke-opacity:1;marker:none;marker-start:none;marker-mid:none;marker-end:none"
         d="M 14.751953 9.6660156 C 12.889308 9.6660156 12.078063 10.073398 11.738281 10.410156 C 11.568387 10.578535 11.506978 10.731514 11.480469 10.841797 C 11.454035 10.952069 11.462891 10.994141 11.462891 10.994141 L 11.466797 11.013672 L 11.470703 12.460938 L 15.103516 12.460938 L 15.103516 13.542969 L 9.7265625 13.542969 L 9.7109375 13.539062 C 9.7109375 13.539061 9.2078205 13.482084 8.6835938 13.835938 C 8.1593655 14.189793 7.5898438 14.96337 7.5898438 16.824219 C 7.5898438 18.692688 8.0998047 19.516688 8.5546875 19.898438 C 9.0095703 20.280191 9.4160156 20.246094 9.4160156 20.246094 L 9.4238281 20.244141 L 10.419922 20.244141 L 10.419922 18.755859 C 10.419922 18.755859 10.394992 18.16284 10.681641 17.560547 C 10.96829 16.958254 11.621504 16.335938 12.794922 16.335938 L 16.400391 16.335938 L 16.404297 16.335938 C 16.404297 16.335938 16.851338 16.338842 17.289062 16.130859 C 17.726786 15.922877 18.138672 15.560632 18.138672 14.662109 L 18.138672 11.351562 L 18.144531 11.330078 C 18.144531 11.330078 18.212661 10.975984 17.863281 10.5625 C 17.513901 10.149016 16.694051 9.6660156 14.751953 9.6660156 z M 12.75 10.25 C 13.264211 10.25 13.685547 10.673289 13.685547 11.1875 C 13.685547 11.701711 13.264211 12.125 12.75 12.125 C 12.23579 12.125 11.8125 11.701711 11.8125 11.1875 C 11.8125 10.673289 12.23579 10.25 12.75 10.25 z "
         transform="matrix(0.66656077,0,0,0.66656077,40.235533,51.654559)"
         id="path4665" />
      <path
         style="fill:#333333;fill-opacity:1;stroke-width:0.39693803"
         d="m 11.810547,0.109375 c -1.8259148,0 -3.5313891,0.15901156 -5.1191408,0.4765625 C 5.1036547,0.86379363 3.8719409,1.3003874 2.9589844,1.8164062 2.0460264,2.3324267 1.609375,2.9280304 1.609375,3.5234375 v 1.7050781 c 0,0.6351004 0.4366514,1.1910123 1.3496094,1.7070313 0.9129565,0.5160204 2.1446703,0.9129178 3.7324218,1.2304687 1.5877517,0.3175495 3.2535312,0.4765625 5.1191408,0.4765625 1.865608,0 3.53334,-0.1987063 5.121094,-0.4765625 1.587751,-0.2778576 2.81751,-0.7144483 3.730468,-1.2304687 0.912958,-0.516019 1.34961,-1.1116242 1.34961,-1.7070313 V 3.5234375 c 0,-0.6351019 -0.436652,-1.1910108 -1.34961,-1.7070313 C 19.749151,1.3003874 18.519392,0.90348844 16.931641,0.5859375 15.343887,0.26838656 13.636461,0.109375 11.810547,0.109375 Z m -10.201172,7.9375 v 2.263672 c 0,0.6351 0.4366514,1.191012 1.3496094,1.707031 0.9129565,0.516019 2.1446703,0.912918 3.7324218,1.230469 0.4938579,0.09877 0.9989163,0.176091 1.5117188,0.244141 0.054451,-0.04449 0.108721,-0.09155 0.1640625,-0.128907 0.6939007,-0.468377 1.4082031,-0.386719 1.4082031,-0.386719 l -0.03125,-0.002 h 1.1601564 l -0.0059,-1.939453 0.002,0.04102 c 0,0 -0.01861,-0.167894 0.0293,-0.367188 0.02919,-0.121457 0.09896,-0.264947 0.193359,-0.414062 C 9.2836186,10.256197 7.560797,10.071508 5.9375,9.7539062 4.111584,9.3569688 2.6811077,8.8010568 1.609375,8.046875 Z m 20.402344,0 c -1.059209,0.7453686 -2.470211,1.2954345 -4.265625,1.6914062 0.229807,0.1421193 0.413556,0.2965808 0.550781,0.4589848 0.491619,0.581815 0.408203,1.220703 0.408203,1.220703 l 0.002,-0.04297 v 1.009766 h 1.134766 c 0,0 0.03933,0.006 0.04297,0.0059 0.278144,-0.118587 0.544152,-0.241243 0.777343,-0.373047 0.912958,-0.516019 1.34961,-1.111624 1.34961,-1.707031 z M 1.609375,13.167969 v 2.263672 c 0,0.635102 0.4366514,1.189057 1.3496094,1.705078 0.9129565,0.516019 2.1446703,0.912918 3.7324218,1.230469 0.1631453,0.03263 0.331143,0.05666 0.4960938,0.08594 -0.09974,-0.45585 -0.1621094,-0.988039 -0.1621094,-1.628906 0,-0.682739 0.081628,-1.242957 0.2109375,-1.712891 C 6.7965425,15.043608 6.3637985,14.967673 5.9375,14.875 4.111584,14.478061 2.6811077,13.922152 1.609375,13.167969 Z m 20.402344,0 c -0.130735,0.092 -0.278064,0.176771 -0.419922,0.263672 0.162558,0.250979 0.30605,0.561548 0.419922,0.939453 z M 1.609375,18.248047 v 2.263672 c 0,0.6351 0.4366514,1.191012 1.3496094,1.707031 0.9129565,0.51602 2.1446703,0.912918 3.7324218,1.230469 1.5877517,0.317549 3.293226,0.476562 5.1191408,0.476562 0.285129,0 0.56245,-0.01225 0.841797,-0.02148 -0.836563,-0.201742 -1.347276,-0.538989 -1.654297,-0.902344 -0.491619,-0.581815 -0.40625,-1.222656 -0.40625,-1.222656 l -0.0039,0.04492 V 20.8125 H 9.4511719 c 0,0 -0.6553448,0.03201 -1.2636719,-0.478516 -0.012859,-0.01079 -0.024304,-0.02976 -0.037109,-0.04102 C 7.3943758,20.20406 6.6543986,20.095341 5.9375,19.955078 4.111584,19.558141 2.6811077,19.002229 1.609375,18.248047 Z m 20.402344,0.01172 c -0.253364,0.790395 -0.66119,1.283605 -1.085938,1.570312 -0.6939,0.468382 -1.40625,0.390625 -1.40625,0.390625 l 0.0293,0.002 h -1.160156 l 0.0059,1.941406 -0.0039,-0.04102 c 0,0 0.02251,0.163988 -0.02539,0.363281 -0.0479,0.199295 -0.163578,0.458742 -0.410156,0.703125 -0.02212,0.02192 -0.05988,0.04089 -0.08398,0.0625 1.139439,-0.269556 2.06865,-0.624909 2.791015,-1.033203 0.912958,-0.516019 1.34961,-1.111624 1.34961,-1.707031 z"
         transform="matrix(0.66656077,0,0,0.66656077,40.235533,51.654559)"
         id="XMLID_8_"
         inkscape:connector-curvature="0"
         sodipodi:nodetypes="scssscssccsscsscsssccccccccccccccccccccsccssccsccccccccsccscccccccccccccccccccccsc" />
    </g>
  </g>
  <style
     id="style221"
     type="text/css">
	.st0{fill:#333333;}
</style>
</svg>
